<?xml version="1.0" encoding="utf-8"?>
<!-- Generator: Adobe Illustrator 22.0.1, SVG Export Plug-In . SVG Version: 6.00 Build 0)  -->
<svg version="1.1" id="Шар_1" xmlns="http://www.w3.org/2000/svg" xmlns:xlink="http://www.w3.org/1999/xlink" x="0px" y="0px"
	 viewBox="0 0 117 80.5" style="enable-background:new 0 0 117 80.5;" xml:space="preserve">
<style type="text/css">
	.st0{fill:#FFF1DA;}
	.st1{fill:#D5D6DB;}
	.st2{fill:#029BC5;}
	.st3{fill:#E1E6E9;}
	.st4{fill:#3A556A;}
</style>
<path class="st0" d="M25.5,32.3c0,9.9,8.1,18,18,18h27c2.8,0,5-2.2,5-5v-34c0-5.5-4.5-10-10-10h-35c-2.8,0-5,2.2-5,5V32.3z"/>
<path class="st1" d="M74.1,46.3c-1.4,0.3-2.7,0.9-3.9,1.7c-3.1,2-5,4.9-4.1,6.4c0.9,1.5,4.2,1.1,7.3-0.9c1.2-0.8,2.3-1.7,3.2-2.9
	c0.4-0.5,0.5-1.2,0.2-1.7l-1.2-2C75.3,46.4,74.7,46.1,74.1,46.3z"/>
<path class="st1" d="M66.2,19.3c-1,0.2-1.9,0.6-2.8,1.2c-2.3,1.5-3.6,3.5-3,4.6c0.6,1.1,3,0.8,5.3-0.6c0.9-0.6,1.7-1.3,2.3-2.1
	c0.3-0.4,0.3-0.9,0.1-1.2l-0.8-1.4C67.1,19.4,66.6,19.2,66.2,19.3z"/>
<path class="st2" d="M53.4,20.4c-0.2,0-0.5,0-0.7,0.2L47.4,24c-0.4,0.3-0.6,0.8-0.4,1.2c0.1,0.1,0.1,0.2,0.2,0.2l13.2,9.1l17.8-11.4
	L53.4,20.4z"/>
<path class="st3" d="M109.7,19.1L61.2,49.7L32.5,61.1L17.8,64l-1.6-2.7l80.9-49.9c2.4-1.5,5.1-2.4,7.8-2.7c1.2-0.1,2.3-0.1,3.5,0.1
	c1,0.2,1.9,0.4,2.8,0.9c1,0.5,2.8,0.5,3.4,1.5C114.6,11.1,116,15.5,109.7,19.1L109.7,19.1z"/>
<path class="st2" d="M61.8,45.6l-21,33.5c-0.3,0.5-0.1,1,0.3,1.2c0.3,0.1,0.6,0.1,0.9-0.1l5.3-3.4c1-0.7,1.9-1.5,2.7-2.4l40.7-47.9
	L61.8,45.6z"/>
<path class="st2" d="M8.9,44.5c-0.4-0.1-0.8-0.1-1.1,0.2l-4.4,2.8c-0.6,0.4-0.8,1.1-0.5,1.6c0.1,0.1,0.1,0.2,0.2,0.3l12.4,9.9
	l13-8.1L8.9,44.5z"/>
<path class="st2" d="M19.5,61.1l-6.7,9.3c-0.1,0.1-0.1,0.3,0.1,0.4c0.1,0.1,0.2,0,0.3,0l4.1-2.6c0,0,0.1,0,0.1-0.1l9.7-11.8
	L19.5,61.1z"/>
<path class="st2" d="M107.6,9.2C106.4,9,105.2,9,104,9.1c-1.2,1.7-1.9,3.5-2.2,5.4c0,0.4,0.3,0.6,0.7,0.6c0.1,0,0.2-0.1,0.4-0.1
	l7.6-4.8C109.6,9.6,108.6,9.3,107.6,9.2z"/>
<path class="st1" d="M91,18.1l5-3.1l4.6,7.9l-5,3.1L91,18.1z"/>
<path class="st4" d="M87.9,21.2c-0.6,0.4-0.8,1.1-0.5,1.6l0.5,0.8c0.3,0.5,1.1,0.6,1.7,0.2c0.6-0.4,0.8-1.1,0.5-1.6l-0.5-0.8
	C89.2,20.9,88.5,20.8,87.9,21.2L87.9,21.2z"/>
<path class="st4" d="M83.4,24c-0.6,0.4-0.8,1.1-0.5,1.6l0.5,0.8c0.3,0.5,1.1,0.6,1.7,0.2c0.6-0.4,0.8-1.1,0.5-1.6L85,24.2
	C84.7,23.7,84,23.6,83.4,24L83.4,24z"/>
<path class="st4" d="M78.9,26.8c-0.6,0.4-0.8,1.1-0.5,1.6l0.5,0.8c0.3,0.5,1.1,0.6,1.7,0.2c0.6-0.4,0.8-1.1,0.5-1.6L80.6,27
	C80.3,26.5,79.5,26.4,78.9,26.8L78.9,26.8z"/>
<path class="st4" d="M74.5,29.5c-0.6,0.4-0.8,1.1-0.5,1.6l0.5,0.8c0.3,0.5,1.1,0.6,1.7,0.2c0.6-0.4,0.8-1.1,0.5-1.6l-0.5-0.8
	C75.8,29.3,75.1,29.1,74.5,29.5L74.5,29.5z"/>
<path class="st4" d="M70,32.3c-0.6,0.4-0.8,1.1-0.5,1.6l0.5,0.8c0.3,0.5,1,0.6,1.6,0.3c0.6-0.4,0.8-1.1,0.5-1.6l-0.5-0.8
	C71.3,32,70.6,31.9,70,32.3C70,32.3,70,32.3,70,32.3z"/>
<path class="st4" d="M65.6,35.1c-0.6,0.4-0.8,1.1-0.5,1.6l0.5,0.8c0.3,0.5,1,0.6,1.6,0.3c0.6-0.4,0.8-1.1,0.5-1.6l-0.5-0.8
	C66.9,34.8,66.2,34.7,65.6,35.1C65.6,35.1,65.6,35.1,65.6,35.1z"/>
<path class="st4" d="M61.1,37.8c-0.6,0.4-0.8,1.1-0.5,1.6l0.5,0.8c0.3,0.5,1,0.6,1.6,0.3c0.6-0.4,0.8-1.1,0.5-1.6l-0.5-0.8
	C62.4,37.6,61.7,37.5,61.1,37.8z"/>
<path class="st4" d="M56.6,40.6c-0.6,0.4-0.8,1.1-0.5,1.6l0.5,0.8c0.3,0.5,1,0.6,1.6,0.3c0.6-0.4,0.8-1.1,0.5-1.6l-0.5-0.8
	C58,40.4,57.2,40.2,56.6,40.6z"/>
<path class="st4" d="M52.2,43.4c-0.6,0.4-0.8,1.1-0.5,1.6l0.5,0.8c0.3,0.5,1,0.6,1.6,0.3c0.6-0.4,0.8-1.1,0.5-1.6l-0.5-0.8
	C53.5,43.1,52.8,43,52.2,43.4z"/>
<path class="st4" d="M47.7,46.2c-0.6,0.4-0.8,1.1-0.5,1.6l0,0l0.5,0.8c0.3,0.5,1,0.6,1.6,0.3c0.6-0.4,0.8-1.1,0.5-1.6l-0.5-0.8
	C49,45.9,48.3,45.8,47.7,46.2z"/>
<path class="st4" d="M43.2,48.9c-0.6,0.4-0.8,1.1-0.5,1.6l0,0l0.5,0.8c0.3,0.5,1,0.6,1.6,0.3c0.6-0.4,0.8-1.1,0.5-1.6l-0.5-0.8
	C44.6,48.7,43.8,48.6,43.2,48.9z"/>
</svg>
